<svg width="59" height="60" viewBox="0 0 59 60" fill="none" xmlns="http://www.w3.org/2000/svg">
<rect x="5.92944" y="7.09784" width="46.5842" height="45.9946" fill="white"/>
<path d="M34.7645 22.6062C34.6174 22.6062 34.4717 22.6352 34.3358 22.6915C34.1998 22.7478 34.0763 22.8303 33.9723 22.9344C33.8682 23.0384 33.7857 23.1619 33.7294 23.2979C33.6731 23.4338 33.6441 23.5795 33.6441 23.7266V28.6504L29.5164 23.1664C29.4136 22.9995 29.2707 22.8609 29.1009 22.7631C28.931 22.6653 28.7394 22.6114 28.5434 22.6062C28.3963 22.6062 28.2506 22.6352 28.1147 22.6915C27.9788 22.7478 27.8553 22.8303 27.7512 22.9344C27.6472 23.0384 27.5647 23.1619 27.5084 23.2979C27.452 23.4338 27.4231 23.5795 27.4231 23.7266V32.1C27.4231 32.2471 27.452 32.3928 27.5084 32.5287C27.5647 32.6647 27.6472 32.7882 27.7512 32.8922C27.8553 32.9962 27.9788 33.0788 28.1147 33.1351C28.2506 33.1914 28.3963 33.2204 28.5434 33.2204C28.6906 33.2204 28.8363 33.1914 28.9722 33.1351C29.1081 33.0788 29.2316 32.9962 29.3357 32.8922C29.4397 32.7882 29.5222 32.6647 29.5785 32.5287C29.6348 32.3928 29.6638 32.2471 29.6638 32.1V27.1467L33.7621 32.7781C33.8664 32.9352 34.0231 33.0501 34.2043 33.1024C34.3402 33.1329 34.4812 33.1329 34.6171 33.1024C34.7464 33.1494 34.8842 33.1685 35.0214 33.1583C35.1587 33.1482 35.2922 33.109 35.4131 33.0435L35.708 32.8371C35.9149 32.6236 36.0312 32.3383 36.0323 32.041V23.7266C36.0337 23.5662 36.0006 23.4074 35.9354 23.2609C35.8701 23.1143 35.7741 22.9835 35.6539 22.8773C35.5337 22.7711 35.3921 22.6919 35.2386 22.6452C35.0852 22.5984 34.9235 22.5851 34.7645 22.6062ZM21.261 30.8911H18.1357V23.7266C18.1357 23.4295 18.0177 23.1445 17.8076 22.9344C17.5974 22.7243 17.3125 22.6062 17.0153 22.6062C16.7182 22.6062 16.4332 22.7243 16.2231 22.9344C16.013 23.1445 15.8949 23.4295 15.8949 23.7266V32.1C15.8949 32.3971 16.013 32.6821 16.2231 32.8922C16.4332 33.1023 16.7182 33.2204 17.0153 33.2204H21.261C21.5609 33.2205 21.849 33.1034 22.0638 32.8941C22.2786 32.6848 22.4031 32.3998 22.4108 32.1C22.4188 31.9441 22.395 31.7882 22.3408 31.6418C22.2866 31.4954 22.2032 31.3616 22.0956 31.2485C21.988 31.1354 21.8586 31.0454 21.7151 30.984C21.5716 30.9225 21.4171 30.8909 21.261 30.8911ZM24.5337 22.6062C24.2337 22.6061 23.9457 22.7232 23.7308 22.9325C23.516 23.1418 23.3915 23.4268 23.3838 23.7266V32.1C23.3915 32.3998 23.516 32.6848 23.7308 32.8941C23.9457 33.1034 24.2337 33.2205 24.5337 33.2204C24.8308 33.2204 25.1158 33.1023 25.3259 32.8922C25.536 32.6821 25.654 32.3971 25.654 32.1V23.7266C25.654 23.4295 25.536 23.1445 25.3259 22.9344C25.1158 22.7243 24.8308 22.6062 24.5337 22.6062ZM46.9413 0.611389H12.0915C8.89574 0.619174 5.83305 1.89215 3.57326 4.15194C1.31348 6.41172 0.0405 9.47441 0.0327148 12.6702V47.5199C0.0405 50.7158 1.31348 53.7784 3.57326 56.0382C5.83305 58.298 8.89574 59.571 12.0915 59.5788H46.9413C50.1371 59.571 53.1998 58.298 55.4596 56.0382C57.7193 53.7784 58.9923 50.7158 59.0001 47.5199V12.6702C58.9923 9.47441 57.7193 6.41172 55.4596 4.15194C53.1998 1.89215 50.1371 0.619174 46.9413 0.611389ZM47.8553 36.8174C47.7392 36.9931 47.6111 37.1605 47.472 37.3186C46.7689 38.1838 45.9785 38.9742 45.1133 39.6773C39.2165 45.1907 29.31 51.7951 27.9833 50.7632C26.6565 49.7312 29.8702 45.574 26.4206 44.8664C26.1759 44.8972 25.9283 44.8972 25.6835 44.8664C15.5411 43.4512 7.99331 36.3456 7.99331 27.8248C7.99331 18.2426 17.6934 10.4884 29.6343 10.4884C41.5752 10.4884 51.2754 18.2426 51.2754 27.8248C51.1731 31.1205 49.9689 34.2867 47.8553 36.8174ZM42.8136 22.6357H38.3615C38.2144 22.6357 38.0687 22.6647 37.9328 22.721C37.7968 22.7773 37.6733 22.8598 37.5693 22.9639C37.4653 23.0679 37.3827 23.1914 37.3264 23.3273C37.2701 23.4633 37.2411 23.609 37.2411 23.7561V32.1295C37.2411 32.4266 37.3592 32.7116 37.5693 32.9217C37.7794 33.1318 38.0644 33.2498 38.3615 33.2498H42.7251C43.0222 33.2498 43.3072 33.1318 43.5173 32.9217C43.7274 32.7116 43.8455 32.4266 43.8455 32.1295C43.8455 31.9823 43.8165 31.8366 43.7602 31.7007C43.7039 31.5648 43.6214 31.4413 43.5173 31.3372C43.4133 31.2332 43.2898 31.1507 43.1539 31.0944C43.0179 31.0381 42.8722 31.0091 42.7251 31.0091H39.6883V29.2401H42.8136C43.1134 29.2324 43.3983 29.1078 43.6076 28.893C43.8169 28.6782 43.934 28.3901 43.9339 28.0902C43.9339 27.793 43.8159 27.5081 43.6058 27.298C43.3957 27.0879 43.1107 26.9698 42.8136 26.9698H39.6883V25.1713H42.8136C42.9607 25.1713 43.1064 25.1423 43.2423 25.086C43.3782 25.0297 43.5017 24.9472 43.6058 24.8432C43.7098 24.7391 43.7924 24.6156 43.8487 24.4797C43.905 24.3437 43.9339 24.1981 43.9339 24.0509C43.9803 23.8815 43.9861 23.7035 43.951 23.5313C43.9158 23.3592 43.8407 23.1977 43.7317 23.06C43.6226 22.9222 43.4827 22.812 43.3232 22.7383C43.1637 22.6646 42.9891 22.6295 42.8136 22.6357Z" fill="#06C755"/>
<path d="M34.7645 22.6062C34.6174 22.6062 34.4717 22.6352 34.3358 22.6915C34.1998 22.7478 34.0763 22.8303 33.9723 22.9344C33.8682 23.0384 33.7857 23.1619 33.7294 23.2979C33.6731 23.4338 33.6441 23.5795 33.6441 23.7266V28.6504L29.5164 23.1664C29.4136 22.9995 29.2707 22.8609 29.1009 22.7631C28.931 22.6653 28.7394 22.6114 28.5434 22.6062C28.3963 22.6062 28.2506 22.6352 28.1147 22.6915C27.9788 22.7478 27.8553 22.8303 27.7512 22.9344C27.6472 23.0384 27.5647 23.1619 27.5084 23.2979C27.452 23.4338 27.4231 23.5795 27.4231 23.7266V32.1C27.4231 32.2471 27.452 32.3928 27.5084 32.5287C27.5647 32.6647 27.6472 32.7882 27.7512 32.8922C27.8553 32.9962 27.9788 33.0788 28.1147 33.1351C28.2506 33.1914 28.3963 33.2204 28.5434 33.2204C28.6906 33.2204 28.8363 33.1914 28.9722 33.1351C29.1081 33.0788 29.2316 32.9962 29.3357 32.8922C29.4397 32.7882 29.5222 32.6647 29.5785 32.5287C29.6348 32.3928 29.6638 32.2471 29.6638 32.1V27.1467L33.7621 32.7781C33.8664 32.9352 34.0231 33.0501 34.2043 33.1024C34.3402 33.1329 34.4812 33.1329 34.6171 33.1024C34.7464 33.1494 34.8842 33.1685 35.0214 33.1583C35.1587 33.1482 35.2922 33.109 35.4131 33.0435L35.708 32.8371C35.9149 32.6236 36.0312 32.3383 36.0323 32.041V23.7266C36.0337 23.5662 36.0006 23.4074 35.9354 23.2609C35.8701 23.1143 35.7741 22.9835 35.6539 22.8773C35.5337 22.7711 35.3921 22.6919 35.2386 22.6452C35.0852 22.5984 34.9235 22.5851 34.7645 22.6062ZM21.261 30.8911H18.1357V23.7266C18.1357 23.4295 18.0177 23.1445 17.8076 22.9344C17.5974 22.7243 17.3125 22.6062 17.0153 22.6062C16.7182 22.6062 16.4332 22.7243 16.2231 22.9344C16.013 23.1445 15.8949 23.4295 15.8949 23.7266V32.1C15.8949 32.3971 16.013 32.6821 16.2231 32.8922C16.4332 33.1023 16.7182 33.2204 17.0153 33.2204H21.261C21.5609 33.2205 21.849 33.1034 22.0638 32.8941C22.2786 32.6848 22.4031 32.3998 22.4108 32.1C22.4188 31.9441 22.395 31.7882 22.3408 31.6418C22.2866 31.4954 22.2032 31.3616 22.0956 31.2485C21.988 31.1354 21.8586 31.0454 21.7151 30.984C21.5716 30.9225 21.4171 30.8909 21.261 30.8911ZM24.5337 22.6062C24.2337 22.6061 23.9457 22.7232 23.7308 22.9325C23.516 23.1418 23.3915 23.4268 23.3838 23.7266V32.1C23.3915 32.3998 23.516 32.6848 23.7308 32.8941C23.9457 33.1034 24.2337 33.2205 24.5337 33.2204C24.8308 33.2204 25.1158 33.1023 25.3259 32.8922C25.536 32.6821 25.654 32.3971 25.654 32.1V23.7266C25.654 23.4295 25.536 23.1445 25.3259 22.9344C25.1158 22.7243 24.8308 22.6062 24.5337 22.6062ZM46.9413 0.611389H12.0915C8.89574 0.619174 5.83305 1.89215 3.57326 4.15194C1.31348 6.41172 0.0405 9.47441 0.0327148 12.6702V47.5199C0.0405 50.7158 1.31348 53.7784 3.57326 56.0382C5.83305 58.298 8.89574 59.571 12.0915 59.5788H46.9413C50.1371 59.571 53.1998 58.298 55.4596 56.0382C57.7193 53.7784 58.9923 50.7158 59.0001 47.5199V12.6702C58.9923 9.47441 57.7193 6.41172 55.4596 4.15194C53.1998 1.89215 50.1371 0.619174 46.9413 0.611389ZM47.8553 36.8174C47.7392 36.9931 47.6111 37.1605 47.472 37.3186C46.7689 38.1838 45.9785 38.9742 45.1133 39.6773C39.2165 45.1907 29.31 51.7951 27.9833 50.7632C26.6565 49.7312 29.8702 45.574 26.4206 44.8664C26.1759 44.8972 25.9283 44.8972 25.6835 44.8664C15.5411 43.4512 7.99331 36.3456 7.99331 27.8248C7.99331 18.2426 17.6934 10.4884 29.6343 10.4884C41.5752 10.4884 51.2754 18.2426 51.2754 27.8248C51.1731 31.1205 49.9689 34.2867 47.8553 36.8174ZM42.8136 22.6357H38.3615C38.2144 22.6357 38.0687 22.6647 37.9328 22.721C37.7968 22.7773 37.6733 22.8598 37.5693 22.9639C37.4653 23.0679 37.3827 23.1914 37.3264 23.3273C37.2701 23.4633 37.2411 23.609 37.2411 23.7561V32.1295C37.2411 32.4266 37.3592 32.7116 37.5693 32.9217C37.7794 33.1318 38.0644 33.2498 38.3615 33.2498H42.7251C43.0222 33.2498 43.3072 33.1318 43.5173 32.9217C43.7274 32.7116 43.8455 32.4266 43.8455 32.1295C43.8455 31.9823 43.8165 31.8366 43.7602 31.7007C43.7039 31.5648 43.6214 31.4413 43.5173 31.3372C43.4133 31.2332 43.2898 31.1507 43.1539 31.0944C43.0179 31.0381 42.8722 31.0091 42.7251 31.0091H39.6883V29.2401H42.8136C43.1134 29.2324 43.3983 29.1078 43.6076 28.893C43.8169 28.6782 43.934 28.3901 43.9339 28.0902C43.9339 27.793 43.8159 27.5081 43.6058 27.298C43.3957 27.0879 43.1107 26.9698 42.8136 26.9698H39.6883V25.1713H42.8136C42.9607 25.1713 43.1064 25.1423 43.2423 25.086C43.3782 25.0297 43.5017 24.9472 43.6058 24.8432C43.7098 24.7391 43.7924 24.6156 43.8487 24.4797C43.905 24.3437 43.9339 24.1981 43.9339 24.0509C43.9803 23.8815 43.9861 23.7035 43.951 23.5313C43.9158 23.3592 43.8407 23.1977 43.7317 23.06C43.6226 22.9222 43.4827 22.812 43.3232 22.7383C43.1637 22.6646 42.9891 22.6295 42.8136 22.6357Z" fill="black" fill-opacity="0.2"/>
</svg>
